<?xml version="1.0" encoding="UTF-8" standalone="no"?>
<!-- Created with Inkscape (http://www.inkscape.org/) -->

<svg
   version="1.1"
   id="svg2"
   xml:space="preserve"
   width="2487"
   height="449"
   viewBox="252 248 2487 449"
   sodipodi:docname="NowSecure blue horizontal logo.ai"
   xmlns:inkscape="http://www.inkscape.org/namespaces/inkscape"
   xmlns:sodipodi="http://sodipodi.sourceforge.net/DTD/sodipodi-0.dtd"
   xmlns="http://www.w3.org/2000/svg"
   xmlns:svg="http://www.w3.org/2000/svg"><defs
     id="defs6"><clipPath
       clipPathUnits="userSpaceOnUse"
       id="clipPath16"><path
         d="M 0,710 H 2244 V 0 H 0 Z"
         id="path14" /></clipPath></defs><sodipodi:namedview
     id="namedview4"
     pagecolor="#ffffff"
     bordercolor="#666666"
     borderopacity="1.0"
     inkscape:pageshadow="2"
     inkscape:pageopacity="0.0"
     inkscape:pagecheckerboard="0" /><g
     id="g8"
     inkscape:groupmode="layer"
     inkscape:label="NowSecure blue horizontal logo"
     transform="matrix(1.3333333,0,0,-1.3333333,0,946.66667)"><g
       id="g10"><g
         id="g12"
         clip-path="url(#clipPath16)"><g
           id="g18"
           transform="translate(552.2686,377.8384)"><path
             d="m 0,0 -68.189,118.292 c -8.169,14.172 -23.282,22.905 -39.64,22.905 h -68.302 -68.455 c -16.318,0 -31.401,-8.691 -39.585,-22.808 L -352.42,0.661 c -8.226,-14.189 -8.228,-31.696 -0.005,-45.888 l 34.057,-58.778 c 0.089,-0.171 0.176,-0.342 0.272,-0.511 l 49.093,-82.182 h 161.321 c 16.257,0 31.397,8.75 39.513,22.837 L 0.006,-45.541 C 8.1,-31.495 8.097,-14.044 0,0 m -329.959,-12.929 68.569,118.279 c 3.408,5.879 9.689,9.498 16.485,9.498 h 45.64 l -107.755,-186.479 -22.941,39.592 c -3.415,5.894 -3.414,13.216 0.002,19.11 m 197.329,35.377 27.698,-47.972 -78.942,-137.753 h -56.31 z m 110.035,-54.722 -68.297,-118.534 c -3.402,-5.903 -9.697,-9.542 -16.511,-9.542 h -45.607 l 75.013,130.956 c 0.714,1.246 1.207,2.581 1.488,3.948 0.009,0.044 0.021,0.087 0.03,0.131 0.031,0.157 0.051,0.316 0.076,0.474 0.02,0.126 0.045,0.252 0.061,0.379 0.024,0.183 0.037,0.366 0.053,0.55 0.009,0.102 0.023,0.204 0.029,0.306 0.012,0.187 0.013,0.375 0.017,0.563 0.002,0.099 0.009,0.199 0.009,0.298 0,0.194 -0.011,0.388 -0.019,0.582 -0.004,0.093 -0.004,0.185 -0.01,0.278 -0.014,0.209 -0.038,0.418 -0.062,0.627 -0.009,0.077 -0.012,0.153 -0.022,0.23 -0.02,0.152 -0.05,0.303 -0.075,0.454 -0.022,0.132 -0.039,0.266 -0.066,0.398 -0.029,0.15 -0.069,0.299 -0.104,0.449 -0.03,0.131 -0.056,0.263 -0.091,0.394 -0.051,0.191 -0.112,0.38 -0.172,0.57 -0.028,0.087 -0.05,0.175 -0.079,0.262 -0.279,0.825 -0.641,1.629 -1.086,2.4 l -43.021,74.513 c -0.595,1.031 -1.316,1.963 -2.137,2.78 -2.464,2.454 -5.83,3.884 -9.399,3.886 h -0.152 -0.006 c -0.776,0 -1.538,-0.074 -2.285,-0.203 -0.187,-0.033 -0.374,-0.068 -0.558,-0.108 -3.006,-0.656 -5.706,-2.334 -7.623,-4.765 -0.028,-0.036 -0.059,-0.069 -0.087,-0.105 -0.066,-0.086 -0.125,-0.176 -0.189,-0.262 -0.283,-0.386 -0.552,-0.785 -0.796,-1.205 l -118.98,-205.42 -28.213,48.989 122.971,212.849 h 61.033 c 6.812,0 13.107,-3.637 16.509,-9.539 l 68.355,-118.581 c 3.379,-5.86 3.379,-13.142 0.003,-19.002"
             style="fill:#0096ff;fill-opacity:1;fill-rule:nonzero;stroke:none"
             id="path20" /></g><g
           id="g22"
           transform="translate(552.2686,377.8384)"><path
             d="m 0,0 -68.189,118.292 c -8.169,14.172 -23.282,22.905 -39.64,22.905 h -68.302 -68.455 c -16.318,0 -31.401,-8.691 -39.585,-22.808 L -352.42,0.661 c -8.226,-14.189 -8.228,-31.696 -0.005,-45.888 l 34.057,-58.778 c 0.089,-0.171 0.176,-0.342 0.272,-0.511 l 49.093,-82.182 h 161.321 c 16.257,0 31.397,8.75 39.513,22.837 L 0.006,-45.541 C 8.1,-31.495 8.097,-14.044 0,0 Z m -329.959,-12.929 68.569,118.279 c 3.408,5.879 9.689,9.498 16.485,9.498 h 45.64 l -107.755,-186.479 -22.941,39.592 c -3.415,5.894 -3.414,13.216 0.002,19.11 z m 197.329,35.377 27.698,-47.972 -78.942,-137.753 h -56.31 z m 110.035,-54.722 -68.297,-118.534 c -3.402,-5.903 -9.697,-9.542 -16.511,-9.542 h -45.607 l 75.013,130.956 c 0.714,1.246 1.207,2.581 1.488,3.948 0.009,0.044 0.021,0.087 0.03,0.131 0.031,0.157 0.051,0.316 0.076,0.474 0.02,0.126 0.045,0.252 0.061,0.379 0.024,0.183 0.037,0.366 0.053,0.55 0.009,0.102 0.023,0.204 0.029,0.306 0.012,0.187 0.013,0.375 0.017,0.563 0.002,0.099 0.009,0.199 0.009,0.298 0,0.194 -0.011,0.388 -0.019,0.582 -0.004,0.093 -0.004,0.185 -0.01,0.278 -0.014,0.209 -0.038,0.418 -0.062,0.627 -0.009,0.077 -0.012,0.153 -0.022,0.23 -0.02,0.152 -0.05,0.303 -0.075,0.454 -0.022,0.132 -0.039,0.266 -0.066,0.398 -0.029,0.15 -0.069,0.299 -0.104,0.449 -0.03,0.131 -0.056,0.263 -0.091,0.394 -0.051,0.191 -0.112,0.38 -0.172,0.57 -0.028,0.087 -0.05,0.175 -0.079,0.262 -0.279,0.825 -0.641,1.629 -1.086,2.4 l -43.021,74.513 c -0.595,1.031 -1.316,1.963 -2.137,2.78 -2.464,2.454 -5.83,3.884 -9.399,3.886 h -0.152 -0.006 c -0.776,0 -1.538,-0.074 -2.285,-0.203 -0.187,-0.033 -0.374,-0.068 -0.558,-0.108 -3.006,-0.656 -5.706,-2.334 -7.623,-4.765 -0.028,-0.036 -0.059,-0.069 -0.087,-0.105 -0.066,-0.086 -0.125,-0.176 -0.189,-0.262 -0.283,-0.386 -0.552,-0.785 -0.796,-1.205 l -118.98,-205.42 -28.213,48.989 122.971,212.849 h 61.033 c 6.812,0 13.107,-3.637 16.509,-9.539 l 68.355,-118.581 c 3.379,-5.86 3.379,-13.142 0.003,-19.002 z"
             style="fill:none;stroke:#0096ff;stroke-width:9;stroke-linecap:butt;stroke-linejoin:miter;stroke-miterlimit:10;stroke-dasharray:none;stroke-opacity:1"
             id="path24" /></g></g></g><g
       aria-label="NowSecure"
       transform="matrix(1,0,0,-1,625.0244,252.8916)"
       id="text28"
       style="font-weight:600;font-size:268.512px;font-family:'Nunito Sans SemiBold';-inkscape-font-specification:NunitoSans-SemiBold;fill:#0096ff"><path
         d="m 151.44076,-189.30096 h 26.04567 V 0 H 156.27398 L 48.063647,-142.84838 V 0 H 22.017983 V -189.30096 H 42.961919 L 151.44076,-46.184063 Z"
         id="path34" /><path
         d="m 275.22487,1.879584 q -19.33287,0 -34.10102,-8.3238718 -14.49965,-8.3238722 -22.55501,-23.6290552 -7.78685,-15.573696 -7.78685,-35.980607 0,-20.675424 7.78685,-35.98061 8.05536,-15.57369 22.55501,-23.89756 14.76815,-8.32388 34.10102,-8.32388 19.33286,0 33.83251,8.32388 14.76816,8.32387 22.55501,23.89756 8.05536,15.305186 8.05536,35.98061 0,20.406911 -8.05536,35.980607 -7.78685,15.305183 -22.55501,23.6290552 -14.49965,8.3238718 -33.83251,8.3238718 z m 0,-21.48096 q 17.9903,0 27.38822,-11.814527 9.66643,-11.814528 9.66643,-34.638047 0,-22.555008 -9.66643,-34.36954 -9.66643,-12.08304 -27.38822,-12.08304 -17.72179,0 -27.38823,12.08304 -9.66643,11.814532 -9.66643,34.36954 0,22.823519 9.39792,34.638047 9.66643,11.814527 27.65674,11.814527 z"
         id="path36" /><path
         d="m 545.348,-131.03385 h 26.8512 L 521.98746,0 H 497.55287 L 462.91482,-93.710686 428.27677,0 h -24.7031 l -49.94323,-131.03385 h 28.19376 l 35.44358,98.543899 35.7121,-98.543899 h 21.21244 l 35.7121,99.080923 z"
         id="path38" /><path
         d="m 660.80823,2.1480959 q -22.01798,0 -40.54531,-5.9072638 -18.25882,-5.9072639 -31.4159,-17.4532791 l 9.93494,-20.406912 q 13.96262,11.277504 28.73078,16.379232 15.03668,4.833216 33.564,4.833216 21.21245,0 32.75847,-7.786848 11.54601,-8.05536 11.54601,-22.555008 0,-12.351551 -10.74048,-18.258815 -10.74048,-6.175776 -34.36953,-11.546016 -22.55501,-4.833216 -37.05466,-11.008992 -14.49965,-6.175776 -22.82352,-16.64774 -8.05536,-10.74048 -8.05536,-27.11971 0,-16.64775 8.59239,-29.26781 8.86089,-12.62007 24.97161,-19.60138 16.11072,-7.24982 37.32317,-7.24982 19.86989,0 37.32317,6.17577 17.72179,5.90727 28.99929,17.18477 l -9.66643,20.40691 q -13.15709,-10.74048 -27.11971,-15.8422 -13.69411,-5.37024 -29.26781,-5.37024 -20.40691,0 -32.22144,8.59238 -11.54601,8.32387 -11.54601,23.36054 0,12.88858 10.20345,19.60138 10.20346,6.44429 32.75846,11.81453 23.62906,5.37024 38.12871,11.2775 14.76816,5.638752 23.36054,15.842208 8.8609,9.934944 8.8609,26.045663 0,16.379232 -8.8609,28.730784 -8.59238,12.351551 -24.97161,19.0643511 -16.11072,6.7127998 -38.39722,6.7127998 z"
         id="path40" /><path
         d="m 876.15495,-60.952223 h -92.63664 q 2.95363,41.619359 41.35085,41.619359 22.555,0 40.81382,-14.768159 l 8.32387,19.064351 q -9.12941,7.7868482 -22.55501,12.3515521 -13.4256,4.5647039 -27.38822,4.5647039 -31.4159,0 -49.67472,-17.990304 -17.9903,-17.990303 -17.9903,-49.674718 0,-20.1384 7.78685,-35.712092 8.05536,-15.5737 22.28649,-24.16608 14.49965,-8.59239 32.75846,-8.59239 26.58269,0 41.61936,17.18477 15.30519,17.184768 15.30519,47.526624 z m -56.38752,-53.433887 q -15.5737,0 -24.97162,9.93494 -9.12941,9.666436 -11.00899,27.925252 h 69.00758 q -0.80553,-18.258816 -9.39792,-27.925252 -8.32387,-9.93494 -23.62905,-9.93494 z"
         id="path42" /><path
         d="m 963.42141,1.879584 q -19.86989,0 -34.63805,-8.3238718 -14.49965,-8.3238722 -22.55501,-23.3605432 -7.78684,-15.305184 -7.78684,-35.712095 0,-20.406912 8.05535,-35.980604 8.32388,-15.5737 23.09204,-24.16608 15.03667,-8.59239 34.90656,-8.59239 13.69411,0 26.31417,4.56471 12.88857,4.5647 20.94397,12.35155 l -8.3239,19.332862 q -17.7218,-14.499652 -36.78615,-14.499652 -18.79584,0 -29.53632,12.35156 -10.47197,12.083036 -10.47197,34.369532 0,22.017983 10.47197,34.101023 10.47197,11.814527 29.53632,11.814527 19.06435,0 36.78615,-14.499647 l 8.3239,19.601375 q -8.5924,7.7868482 -21.48099,12.3515521 -12.88858,4.2961919 -26.8512,4.2961919 z"
         id="path44" /><path
         d="M 1150.5743,-131.03385 V 0 h -26.3142 v -21.212447 q -6.1758,11.2775032 -17.1848,17.1847671 -10.7405,5.9072639 -24.1661,5.9072639 -47.7951,0 -47.7951,-52.628351 v -80.285083 h 27.1197 v 80.016571 q 0,15.842208 6.4443,23.360544 6.4443,7.518335 19.8699,7.518335 15.8422,0 25.2401,-10.203455 9.6664,-10.203456 9.6664,-27.119712 v -73.572283 z"
         id="path46" /><path
         d="m 1268.1826,-111.43248 -16.3793,1.61107 q -19.3328,1.87959 -27.9252,11.814532 -8.3239,9.934944 -8.3239,25.240128 V 0 h -27.1197 v -131.03385 h 26.3142 v 22.82352 q 10.472,-23.09203 42.6934,-25.50864 l 8.8609,-0.53703 z"
         id="path48" /><path
         d="m 1396.236,-60.952223 h -92.6366 q 2.9536,41.619359 41.3508,41.619359 22.555,0 40.8138,-14.768159 l 8.3239,19.064351 q -9.1294,7.7868482 -22.555,12.3515521 -13.4256,4.5647039 -27.3882,4.5647039 -31.4159,0 -49.6747,-17.990304 -17.9903,-17.990303 -17.9903,-49.674718 0,-20.1384 7.7868,-35.712092 8.0554,-15.5737 22.2865,-24.16608 14.4996,-8.59239 32.7585,-8.59239 26.5826,0 41.6193,17.18477 15.3052,17.184768 15.3052,47.526624 z m -56.3875,-53.433887 q -15.5737,0 -24.9716,9.93494 -9.1294,9.666436 -11.009,27.925252 h 69.0076 q -0.8056,-18.258816 -9.398,-27.925252 -8.3238,-9.93494 -23.629,-9.93494 z"
         id="path50" /></g><g
       aria-label="®"
       transform="matrix(1,0,0,-1,2008.5664,411.3062)"
       id="text32"
       style="font-weight:600;font-size:60.8467px;font-family:'Nunito Sans SemiBold';-inkscape-font-specification:NunitoSans-SemiBold;fill:#0096ff"><path
         d="m 24.825453,-43.201156 q 6.08467,0 11.013253,2.859795 4.989429,2.859795 7.849224,7.849224 2.859795,4.928582 2.859795,11.013252 0,6.08467 -2.859795,11.0741 -2.859795,4.9285821 -7.849224,7.8492237 -4.98943,2.85979479 -11.013253,2.85979479 -6.08467,0 -11.074099,-2.85979479 -4.9285827,-2.9206416 -7.8492242,-7.8492237 -2.8597949,-4.98943 -2.8597949,-11.0741 0,-6.08467 2.8597949,-11.013252 2.8597948,-4.989429 7.8492242,-7.849224 4.989429,-2.859795 11.074099,-2.859795 z m 0,40.4630546 q 5.232816,0 9.431238,-2.433868 4.259269,-2.4947146 6.693137,-6.7539836 2.433868,-4.320116 2.433868,-9.552932 0,-5.232816 -2.433868,-9.492085 -2.433868,-4.320115 -6.693137,-6.753983 -4.198422,-2.433868 -9.431238,-2.433868 -5.232816,0 -9.492085,2.433868 -4.259269,2.433868 -6.6931368,6.753983 -2.4338679,4.259269 -2.4338679,9.492085 0,5.232816 2.4338679,9.552932 2.4338678,4.259269 6.6931368,6.7539836 4.259269,2.433868 9.492085,2.433868 z m 4.380962,-16.3677616 q 2.433868,0.608467 3.650802,2.920641 l 4.380963,7.5449908 h -6.145517 l -4.624349,-8.2143048 q -0.608467,-0.973547 -1.277781,-1.338627 -0.669313,-0.425927 -1.764554,-0.425927 h -2.616408 v 9.9788588 h -5.53705 V -34.317538 h 11.195793 q 4.380962,0 6.753984,2.068788 2.373021,2.068787 2.373021,5.719589 0,2.920642 -1.703708,4.928583 -1.642861,1.947094 -4.685196,2.494715 z M 25.799,-22.695819 q 2.251328,0 3.346569,-0.851853 1.09524,-0.912701 1.09524,-2.798949 0,-1.886247 -1.09524,-2.738101 -1.034394,-0.9127 -3.346569,-0.9127 h -5.050276 v 7.301603 z"
         id="path53" /></g></g></svg>
